<?xml version="1.0" encoding="UTF-8"?>
<svg width="264px" height="28px" viewBox="0 0 264 28" version="1.1" xmlns="http://www.w3.org/2000/svg" xmlns:xlink="http://www.w3.org/1999/xlink">
    <!-- Generator: sketchtool 51.3 (57544) - http://www.bohemiancoding.com/sketch -->
    <title>14750D8D-C6EB-47EF-A65E-31F48C6BD8E2</title>
    <desc>Created with sketchtool.</desc>
    <defs></defs>
    <g id="Website" stroke="none" stroke-width="1" fill="none" fill-rule="evenodd">
        <g id="microm-Produktseite" transform="translate(-1176.000000, -88.000000)">
            <g id="claim-welle" transform="translate(1157.000000, 88.000000)">
                <path d="M86.5030864,-3.18619102e-13 C96.0306822,-3.18619102e-13 274.703704,-4.54747351e-13 283,-4.54747351e-13 C283,15.9012346 283,21.7777778 283,28 C262.259259,28 39.4907407,28 19.095679,28 C61.9598765,28 54.3549383,-3.17266275e-13 86.5030864,-3.18619102e-13 Z" id="triangle_website" fill="#1f798b" fill-rule="nonzero" transform="translate(151.047840, 14.000000) scale(1, -1) translate(-151.047840, -14.000000) "></path>
                <g id="Claim" transform="translate(80.000000, 1.000000)" fill="#FFFFFF">
                    <path d="M7.59074853,10.620864 L5.61189759,10.620864 L5.61189759,9.66235811 C5.02442622,10.4044272 4.20505825,10.8063813 3.30839142,10.8063813 C1.42229911,10.8063813 0,9.38408219 0,6.89505875 C0,4.45241462 1.40683934,2.96827641 3.30839142,2.96827641 C4.18959848,2.96827641 5.02442622,3.35477073 5.61189759,4.11229961 L5.61189759,0.309195459 L7.59074853,0.309195459 L7.59074853,10.620864 Z M3.91132256,9.05942696 C4.5760928,9.05942696 5.28724236,8.70385218 5.61189759,8.20913945 L5.61189759,5.56551827 C5.28724236,5.07080553 4.5760928,4.71523076 3.91132256,4.71523076 C2.79821891,4.71523076 2.02523026,5.59643782 2.02523026,6.89505875 C2.02523026,8.1782199 2.79821891,9.05942696 3.91132256,9.05942696 Z M15.9854053,10.620864 L14.0220141,10.620864 L14.0220141,9.84787538 C13.5118416,10.4508065 12.6306345,10.8063813 11.6566688,10.8063813 C10.4662663,10.8063813 9.05942696,10.0024731 9.05942696,8.33281763 C9.05942696,6.58586329 10.4662663,5.92109305 11.6566688,5.92109305 C12.6460943,5.92109305 13.5273014,6.24574828 14.0220141,6.83321965 L14.0220141,5.82833441 C14.0220141,5.07080553 13.3727036,4.5760928 12.3832782,4.5760928 C11.57937,4.5760928 10.8373009,4.86982849 10.2034502,5.45729986 L9.46138106,4.14321916 C10.3735077,3.33931096 11.5484504,2.96827641 12.7233932,2.96827641 C14.4239682,2.96827641 15.9854053,3.64850642 15.9854053,5.79741486 L15.9854053,10.620864 Z M12.4451172,9.47684083 C13.0789679,9.47684083 13.6973589,9.26040401 14.0220141,8.82753037 L14.0220141,7.89994399 C13.6973589,7.46707035 13.0789679,7.25063352 12.4451172,7.25063352 C11.6721286,7.25063352 11.0382779,7.65258762 11.0382779,8.37919695 C11.0382779,9.07488673 11.6721286,9.47684083 12.4451172,9.47684083 Z M20.4378199,10.8063813 C19.0619001,10.8063813 18.319831,10.0952318 18.319831,8.76569128 L18.319831,4.86982849 L17.0830491,4.86982849 L17.0830491,3.15379369 L18.319831,3.15379369 L18.319831,1.11310365 L20.2986819,1.11310365 L20.2986819,3.15379369 L21.8137397,3.15379369 L21.8137397,4.86982849 L20.2986819,4.86982849 L20.2986819,8.24005899 C20.2986819,8.70385218 20.5460383,9.05942696 20.9789119,9.05942696 C21.2726476,9.05942696 21.5509235,8.95120855 21.6591419,8.84299014 L22.0765558,10.3271283 C21.7828201,10.5899445 21.2571878,10.8063813 20.4378199,10.8063813 Z M29.6054652,10.620864 L27.6420741,10.620864 L27.6420741,9.84787538 C27.1319016,10.4508065 26.2506945,10.8063813 25.2767288,10.8063813 C24.0863263,10.8063813 22.679487,10.0024731 22.679487,8.33281763 C22.679487,6.58586329 24.0863263,5.92109305 25.2767288,5.92109305 C26.2661543,5.92109305 27.1473613,6.24574828 27.6420741,6.83321965 L27.6420741,5.82833441 C27.6420741,5.07080553 26.9927636,4.5760928 26.0033381,4.5760928 C25.1994299,4.5760928 24.4573608,4.86982849 23.8235101,5.45729986 L23.081441,4.14321916 C23.9935677,3.33931096 25.1685104,2.96827641 26.3434531,2.96827641 C28.0440282,2.96827641 29.6054652,3.64850642 29.6054652,5.79741486 L29.6054652,10.620864 Z M26.0651772,9.47684083 C26.6990279,9.47684083 27.3174188,9.26040401 27.6420741,8.82753037 L27.6420741,7.89994399 C27.3174188,7.46707035 26.6990279,7.25063352 26.0651772,7.25063352 C25.2921886,7.25063352 24.6583379,7.65258762 24.6583379,8.37919695 C24.6583379,9.07488673 25.2921886,9.47684083 26.0651772,9.47684083 Z M35.820294,10.9300595 L35.820294,0 L36.4850642,0 L36.4850642,10.9300595 L35.820294,10.9300595 Z M49.1311585,10.620864 L47.1677673,10.620864 L47.1677673,9.84787538 C46.6575948,10.4508065 45.7763878,10.8063813 44.8024221,10.8063813 C43.6120196,10.8063813 42.2051802,10.0024731 42.2051802,8.33281763 C42.2051802,6.58586329 43.6120196,5.92109305 44.8024221,5.92109305 C45.7918475,5.92109305 46.6730546,6.24574828 47.1677673,6.83321965 L47.1677673,5.82833441 C47.1677673,5.07080553 46.5184569,4.5760928 45.5290314,4.5760928 C44.7251232,4.5760928 43.9830541,4.86982849 43.3492034,5.45729986 L42.6071343,4.14321916 C43.5192609,3.33931096 44.6942037,2.96827641 45.8691464,2.96827641 C47.5697214,2.96827641 49.1311585,3.64850642 49.1311585,5.79741486 L49.1311585,10.620864 Z M45.5908705,9.47684083 C46.2247212,9.47684083 46.8431121,9.26040401 47.1677673,8.82753037 L47.1677673,7.89994399 C46.8431121,7.46707035 46.2247212,7.25063352 45.5908705,7.25063352 C44.8178818,7.25063352 44.1840312,7.65258762 44.1840312,8.37919695 C44.1840312,9.07488673 44.8178818,9.47684083 45.5908705,9.47684083 Z M58.0823671,10.620864 L56.1189759,10.620864 L56.1189759,6.10661032 C56.1189759,5.07080553 55.5778838,4.71523076 54.7430561,4.71523076 C53.9700674,4.71523076 53.3671363,5.1481044 53.0424811,5.59643782 L53.0424811,10.620864 L51.0790899,10.620864 L51.0790899,3.15379369 L53.0424811,3.15379369 L53.0424811,4.12775938 C53.521734,3.55574778 54.4338606,2.96827641 55.6551827,2.96827641 C57.2939186,2.96827641 58.0823671,3.89586279 58.0823671,5.34908145 L58.0823671,10.620864 Z M66.4770238,10.620864 L64.5136326,10.620864 L64.5136326,9.84787538 C64.0034601,10.4508065 63.122253,10.8063813 62.1482873,10.8063813 C60.9578848,10.8063813 59.5510455,10.0024731 59.5510455,8.33281763 C59.5510455,6.58586329 60.9578848,5.92109305 62.1482873,5.92109305 C63.1377128,5.92109305 64.0189199,6.24574828 64.5136326,6.83321965 L64.5136326,5.82833441 C64.5136326,5.07080553 63.8643221,4.5760928 62.8748967,4.5760928 C62.0709885,4.5760928 61.3289194,4.86982849 60.6950687,5.45729986 L59.9529996,4.14321916 C60.8651262,3.33931096 62.0400689,2.96827641 63.2150117,2.96827641 C64.9155867,2.96827641 66.4770238,3.64850642 66.4770238,5.79741486 L66.4770238,10.620864 Z M62.9367358,9.47684083 C63.5705865,9.47684083 64.1889774,9.26040401 64.5136326,8.82753037 L64.5136326,7.89994399 C64.1889774,7.46707035 63.5705865,7.25063352 62.9367358,7.25063352 C62.1637471,7.25063352 61.5298964,7.65258762 61.5298964,8.37919695 C61.5298964,9.07488673 62.1637471,9.47684083 62.9367358,9.47684083 Z M70.3883463,10.620864 L68.4249552,10.620864 L68.4249552,0.309195459 L70.3883463,0.309195459 L70.3883463,10.620864 Z M72.0734616,13.5427611 L72.3671973,11.780347 C72.5372548,11.8576459 72.8000709,11.9040252 72.9855882,11.9040252 C73.4957607,11.9040252 73.8358757,11.7648872 74.021393,11.3629331 L74.2996689,10.7290824 L71.2695534,3.15379369 L73.3720825,3.15379369 L75.3200139,8.3482774 L77.2679453,3.15379369 L79.3859342,3.15379369 L75.8765657,11.8421861 C75.3200139,13.2490254 74.3305884,13.62006 73.0474273,13.6509795 C72.8155307,13.6509795 72.320818,13.6046002 72.0734616,13.5427611 Z M82.7716245,10.8063813 C81.3957047,10.8063813 80.6536356,10.0952318 80.6536356,8.76569128 L80.6536356,4.86982849 L79.4168538,4.86982849 L79.4168538,3.15379369 L80.6536356,3.15379369 L80.6536356,1.11310365 L82.6324865,1.11310365 L82.6324865,3.15379369 L84.1475443,3.15379369 L84.1475443,4.86982849 L82.6324865,4.86982849 L82.6324865,8.24005899 C82.6324865,8.70385218 82.8798429,9.05942696 83.3127165,9.05942696 C83.6064522,9.05942696 83.8847281,8.95120855 83.9929466,8.84299014 L84.4103604,10.3271283 C84.1166247,10.5899445 83.5909925,10.8063813 82.7716245,10.8063813 Z M86.4665102,2.34988549 C85.8326595,2.34988549 85.2915675,1.82425321 85.2915675,1.17494275 C85.2915675,0.525632281 85.8326595,0.015459773 86.4665102,0.015459773 C87.1158207,0.015459773 87.641453,0.525632281 87.641453,1.17494275 C87.641453,1.82425321 87.1158207,2.34988549 86.4665102,2.34988549 Z M87.4559357,10.620864 L85.4925445,10.620864 L85.4925445,3.15379369 L87.4559357,3.15379369 L87.4559357,10.620864 Z M92.882316,10.8063813 C90.5788098,10.8063813 88.9246141,9.18310515 88.9246141,6.87959897 C88.9246141,4.59155257 90.5788098,2.96827641 92.882316,2.96827641 C94.4128335,2.96827641 95.3404199,3.63304665 95.8351327,4.31327666 L94.5519715,5.51913895 C94.1963967,4.99350667 93.6553047,4.71523076 92.9750747,4.71523076 C91.7846721,4.71523076 90.9498444,5.58097804 90.9498444,6.87959897 C90.9498444,8.1782199 91.7846721,9.05942696 92.9750747,9.05942696 C93.6553047,9.05942696 94.1963967,8.7502315 94.5519715,8.25551877 L95.8351327,9.44592129 C95.3404199,10.1416111 94.4128335,10.8063813 92.882316,10.8063813 Z M99.8082943,10.8063813 C98.5096734,10.8063813 97.2574318,10.3735077 96.4689833,9.64689833 L97.3192709,8.27097854 C97.8603629,8.78115105 98.9734666,9.29132356 99.9010529,9.29132356 C100.75134,9.29132356 101.153295,8.95120855 101.153295,8.48741536 C101.153295,7.97724285 100.473065,7.8381049 99.6536966,7.68350717 C98.3705354,7.4361508 96.7163397,7.11149557 96.7163397,5.3181619 C96.7163397,4.06592029 97.8139836,2.96827641 99.7773748,2.96827641 C101.045076,2.96827641 102.049961,3.40115005 102.79203,3.98862143 L102.003582,5.33362168 C101.555249,4.85436871 100.704961,4.46787439 99.7928345,4.46787439 C99.081685,4.46787439 98.6178918,4.79252962 98.6178918,5.20994349 C98.6178918,5.64281713 99.2053632,5.76649532 100.040191,5.93655282 C101.323352,6.18390919 103.039387,6.53948397 103.039387,8.4101165 C103.039387,9.77057652 101.879904,10.8063813 99.8082943,10.8063813 Z M108.759503,10.9300595 L108.759503,0 L109.424273,0 L109.424273,10.9300595 L108.759503,10.9300595 Z M119.102091,10.8063813 C116.798585,10.8063813 115.144389,9.18310515 115.144389,6.87959897 C115.144389,4.59155257 116.798585,2.96827641 119.102091,2.96827641 C120.632609,2.96827641 121.560195,3.63304665 122.054908,4.31327666 L120.771746,5.51913895 C120.416172,4.99350667 119.87508,4.71523076 119.19485,4.71523076 C118.004447,4.71523076 117.169619,5.58097804 117.169619,6.87959897 C117.169619,8.1782199 118.004447,9.05942696 119.19485,9.05942696 C119.87508,9.05942696 120.416172,8.7502315 120.771746,8.25551877 L122.054908,9.44592129 C121.560195,10.1416111 120.632609,10.8063813 119.102091,10.8063813 Z M126.801058,10.8063813 C124.342954,10.8063813 122.858816,9.01304764 122.858816,6.87959897 C122.858816,4.76161008 124.342954,2.96827641 126.801058,2.96827641 C129.274622,2.96827641 130.75876,4.76161008 130.75876,6.87959897 C130.75876,9.01304764 129.274622,10.8063813 126.801058,10.8063813 Z M126.801058,9.05942696 C128.02238,9.05942696 128.71807,8.05454172 128.71807,6.87959897 C128.71807,5.720116 128.02238,4.71523076 126.801058,4.71523076 C125.579736,4.71523076 124.899506,5.720116 124.899506,6.87959897 C124.899506,8.05454172 125.579736,9.05942696 126.801058,9.05942696 Z M139.215256,10.620864 L137.251864,10.620864 L137.251864,6.10661032 C137.251864,5.07080553 136.710772,4.71523076 135.875945,4.71523076 C135.102956,4.71523076 134.500025,5.1481044 134.17537,5.59643782 L134.17537,10.620864 L132.211978,10.620864 L132.211978,3.15379369 L134.17537,3.15379369 L134.17537,4.12775938 C134.654623,3.55574778 135.566749,2.96827641 136.788071,2.96827641 C138.426807,2.96827641 139.215256,3.89586279 139.215256,5.34908145 L139.215256,10.620864 Z M143.853188,10.8063813 C142.554567,10.8063813 141.302325,10.3735077 140.513877,9.64689833 L141.364164,8.27097854 C141.905256,8.78115105 143.01836,9.29132356 143.945946,9.29132356 C144.796234,9.29132356 145.198188,8.95120855 145.198188,8.48741536 C145.198188,7.97724285 144.517958,7.8381049 143.69859,7.68350717 C142.415429,7.4361508 140.761233,7.11149557 140.761233,5.3181619 C140.761233,4.06592029 141.858877,2.96827641 143.822268,2.96827641 C145.089969,2.96827641 146.094855,3.40115005 146.836924,3.98862143 L146.048475,5.33362168 C145.600142,4.85436871 144.749854,4.46787439 143.837728,4.46787439 C143.126578,4.46787439 142.662785,4.79252962 142.662785,5.20994349 C142.662785,5.64281713 143.250256,5.76649532 144.085084,5.93655282 C145.368245,6.18390919 147.08428,6.53948397 147.08428,8.4101165 C147.08428,9.77057652 145.924797,10.8063813 143.853188,10.8063813 Z M155.540776,10.620864 L153.577385,10.620864 L153.577385,9.67781788 C153.067212,10.2498295 152.170545,10.8063813 150.949223,10.8063813 C149.310487,10.8063813 148.537499,9.90971448 148.537499,8.45649582 L148.537499,3.15379369 L150.50089,3.15379369 L150.50089,7.68350717 C150.50089,8.71931196 151.041982,9.05942696 151.87681,9.05942696 C152.634339,9.05942696 153.23727,8.64201309 153.577385,8.20913945 L153.577385,3.15379369 L155.540776,3.15379369 L155.540776,10.620864 Z M159.452098,10.620864 L157.488707,10.620864 L157.488707,0.309195459 L159.452098,0.309195459 L159.452098,10.620864 Z M163.904513,10.8063813 C162.528593,10.8063813 161.786524,10.0952318 161.786524,8.76569128 L161.786524,4.86982849 L160.549742,4.86982849 L160.549742,3.15379369 L161.786524,3.15379369 L161.786524,1.11310365 L163.765375,1.11310365 L163.765375,3.15379369 L165.280433,3.15379369 L165.280433,4.86982849 L163.765375,4.86982849 L163.765375,8.24005899 C163.765375,8.70385218 164.012731,9.05942696 164.445605,9.05942696 C164.739341,9.05942696 165.017617,8.95120855 165.125835,8.84299014 L165.543249,10.3271283 C165.249513,10.5899445 164.723881,10.8063813 163.904513,10.8063813 Z M167.599399,2.34988549 C166.965548,2.34988549 166.424456,1.82425321 166.424456,1.17494275 C166.424456,0.525632281 166.965548,0.015459773 167.599399,0.015459773 C168.248709,0.015459773 168.774342,0.525632281 168.774342,1.17494275 C168.774342,1.82425321 168.248709,2.34988549 167.599399,2.34988549 Z M168.588824,10.620864 L166.625433,10.620864 L166.625433,3.15379369 L168.588824,3.15379369 L168.588824,10.620864 Z M177.540033,10.620864 L175.576642,10.620864 L175.576642,6.10661032 C175.576642,5.07080553 175.03555,4.71523076 174.200722,4.71523076 C173.427733,4.71523076 172.824802,5.1481044 172.500147,5.59643782 L172.500147,10.620864 L170.536756,10.620864 L170.536756,3.15379369 L172.500147,3.15379369 L172.500147,4.12775938 C172.9794,3.55574778 173.891526,2.96827641 175.112848,2.96827641 C176.751584,2.96827641 177.540033,3.89586279 177.540033,5.34908145 L177.540033,10.620864 Z M182.548999,13.6509795 C181.265838,13.6509795 180.276413,13.3572438 179.333366,12.5378759 L180.214574,11.1155768 C180.817505,11.780347 181.605953,12.0431631 182.548999,12.0431631 C183.492045,12.0431631 184.605149,11.6257493 184.605149,10.1570708 L184.605149,9.39954197 C184.017678,10.1416111 183.213769,10.5744847 182.301643,10.5744847 C180.43101,10.5744847 179.008711,9.26040401 179.008711,6.77138056 C179.008711,4.32873643 180.415551,2.96827641 182.301643,2.96827641 C183.19831,2.96827641 184.002218,3.35477073 184.605149,4.11229961 L184.605149,3.15379369 L186.584,3.15379369 L186.584,10.1106915 C186.584,12.9552898 184.388712,13.6509795 182.548999,13.6509795 Z M182.920034,8.82753037 C183.569344,8.82753037 184.280494,8.45649582 184.605149,7.97724285 L184.605149,5.56551827 C184.280494,5.07080553 183.569344,4.71523076 182.920034,4.71523076 C181.80693,4.71523076 181.033942,5.48821941 181.033942,6.77138056 C181.033942,8.05454172 181.80693,8.82753037 182.920034,8.82753037 Z" id="data-|-analytics-|-c"></path>
                </g>
            </g>
        </g>
    </g>
</svg>